<svg width="360" height="386" viewBox="0 0 360 386" fill="none" xmlns="http://www.w3.org/2000/svg">
<g filter="url(#filter0_d_626_32)">
<path d="M171 5.19615C176.569 1.98076 183.431 1.98076 189 5.19615L326.885 84.8038C332.454 88.0192 335.885 93.9615 335.885 100.392V259.608C335.885 266.038 332.454 271.981 326.885 275.196L189 354.804C183.431 358.019 176.569 358.019 171 354.804L33.1154 275.196C27.5462 271.981 24.1154 266.038 24.1154 259.608V100.392C24.1154 93.9615 27.5462 88.0192 33.1154 84.8038L171 5.19615Z" fill="url(#paint0_linear_626_32)"/>
</g>
<path d="M186.559 188C185.892 194.5 184.392 197.75 182.059 197.75C179.725 197.75 178.309 195 177.809 189.5C177.475 186.667 176.975 182.833 176.309 178C175.809 173 175.142 166.917 174.309 159.75C172.642 145.417 171.392 134 170.559 125.5C169.892 117 169.559 110.25 169.559 105.25C169.559 100.25 170.642 95.9167 172.809 92.25C175.142 88.5833 178.392 86.75 182.559 86.75C186.725 86.75 189.892 88.5833 192.059 92.25C194.392 95.9167 195.559 100.25 195.559 105.25C195.559 108.583 195.392 112.583 195.059 117.25C194.725 121.917 194.309 126.583 193.809 131.25C193.475 135.75 193.059 139.667 192.559 143C191.892 148.167 190.892 156.167 189.559 167L186.559 188ZM197.559 237.5C197.559 241.667 196.059 245.25 193.059 248.25C190.225 251.083 186.725 252.5 182.559 252.5C178.392 252.5 174.809 251.083 171.809 248.25C168.975 245.25 167.559 241.667 167.559 237.5C167.559 233.333 169.059 229.75 172.059 226.75C174.892 223.917 178.392 222.5 182.559 222.5C186.725 222.5 190.225 224 193.059 227C196.059 229.833 197.559 233.333 197.559 237.5Z" fill="white"/>
<defs>
<filter id="filter0_d_626_32" x="16.1152" y="2.78418" width="327.77" height="382.432" filterUnits="userSpaceOnUse" color-interpolation-filters="sRGB">
<feFlood flood-opacity="0" result="BackgroundImageFix"/>
<feColorMatrix in="SourceAlpha" type="matrix" values="0 0 0 0 0 0 0 0 0 0 0 0 0 0 0 0 0 0 127 0" result="hardAlpha"/>
<feOffset dy="20"/>
<feGaussianBlur stdDeviation="4"/>
<feComposite in2="hardAlpha" operator="out"/>
<feColorMatrix type="matrix" values="0 0 0 0 0 0 0 0 0 0 0 0 0 0 0 0 0 0 0.35 0"/>
<feBlend mode="normal" in2="BackgroundImageFix" result="effect1_dropShadow_626_32"/>
<feBlend mode="normal" in="SourceGraphic" in2="effect1_dropShadow_626_32" result="shape"/>
</filter>
<linearGradient id="paint0_linear_626_32" x1="338.5" y1="274.5" x2="1.48106e-05" y2="29.5" gradientUnits="userSpaceOnUse">
<stop offset="0.408654" stop-color="#FF9604"/>
<stop offset="1" stop-color="#473107"/>
</linearGradient>
</defs>
</svg>
