<?xml version="1.0" standalone="no"?><svg xmlns="http://www.w3.org/2000/svg" viewBox="0 0 1440 320"><path fill="#0099ff" fill-opacity="1" d="M0,96L18.5,106.7C36.9,117,74,139,111,128C147.7,117,185,75,222,90.7C258.5,107,295,181,332,213.3C369.2,245,406,235,443,202.7C480,171,517,117,554,128C590.8,139,628,213,665,240C701.5,267,738,245,775,213.3C812.3,181,849,139,886,133.3C923.1,128,960,160,997,170.7C1033.8,181,1071,171,1108,149.3C1144.6,128,1182,96,1218,80C1255.4,64,1292,64,1329,69.3C1366.2,75,1403,85,1422,90.7L1440,96L1440,320L1421.5,320C1403.1,320,1366,320,1329,320C1292.3,320,1255,320,1218,320C1181.5,320,1145,320,1108,320C1070.8,320,1034,320,997,320C960,320,923,320,886,320C849.2,320,812,320,775,320C738.5,320,702,320,665,320C627.7,320,591,320,554,320C516.9,320,480,320,443,320C406.2,320,369,320,332,320C295.4,320,258,320,222,320C184.6,320,148,320,111,320C73.8,320,37,320,18,320L0,320Z"></path></svg>